<?xml version="1.0" encoding="utf-8"?>
<!-- Generator: Adobe Illustrator 17.0.0, SVG Export Plug-In . SVG Version: 6.00 Build 0)  -->
<!DOCTYPE svg PUBLIC "-//W3C//DTD SVG 1.1//EN" "http://www.w3.org/Graphics/SVG/1.1/DTD/svg11.dtd">
<svg version="1.1" id="Layer_1" xmlns="http://www.w3.org/2000/svg" xmlns:xlink="http://www.w3.org/1999/xlink" x="0px" y="0px"
	 width="82.205px" height="121.89px" viewBox="0 0 82.205 121.89" enable-background="new 0 0 82.205 121.89" xml:space="preserve">
<path fill="#C9998D" d="M80.778,40.561c0.067,5.632-0.712,10.262-2.367,13.908l-27.388,60.376c-0.808,1.714-2.006,3.072-3.626,4.08
	c-1.618,1.001-3.342,1.522-5.211,1.547c-1.862,0.03-3.609-0.443-5.25-1.408c-1.64-0.952-2.856-2.278-3.659-3.971L4.174,55.493
	C2.411,51.9,1.493,47.289,1.427,41.649c-0.158-10.952,3.59-20.355,11.234-28.21C20.295,5.582,29.593,1.578,40.554,1.422
	c10.945-0.155,20.354,3.604,28.209,11.24C76.628,20.306,80.628,29.612,80.778,40.561 M55.317,54.947
	c3.827-3.937,5.7-8.633,5.625-14.117c-0.072-5.477-2.082-10.123-6.013-13.942c-3.936-3.825-8.637-5.699-14.11-5.628
	c-5.476,0.083-10.116,2.081-13.943,6.017c-3.822,3.927-5.695,8.627-5.624,14.101c0.081,5.485,2.082,10.13,5.999,13.956
	c3.94,3.818,8.641,5.687,14.119,5.622C46.841,60.869,51.495,58.871,55.317,54.947"/>
</svg>
